<svg width="80" height="80" viewBox="0 0 40 40" fill="none" xmlns="http://www.w3.org/2000/svg">
<path d="M7.49992 20C9.80111 20 11.6666 18.1345 11.6666 15.8334C11.6666 13.5322 9.80111 11.6667 7.49992 11.6667C5.19873 11.6667 3.33325 13.5322 3.33325 15.8334C3.33325 18.1345 5.19873 20 7.49992 20Z" fill="#F24E1E"/>
<path d="M14.9999 13.3333C17.3011 13.3333 19.1666 11.4679 19.1666 9.16667C19.1666 6.86548 17.3011 5 14.9999 5C12.6987 5 10.8333 6.86548 10.8333 9.16667C10.8333 11.4679 12.6987 13.3333 14.9999 13.3333Z" fill="#F24E1E"/>
<path d="M24.9999 13.3333C27.3011 13.3333 29.1666 11.4679 29.1666 9.16667C29.1666 6.86548 27.3011 5 24.9999 5C22.6987 5 20.8333 6.86548 20.8333 9.16667C20.8333 11.4679 22.6987 13.3333 24.9999 13.3333Z" fill="#F24E1E"/>
<path d="M32.4999 20C34.8011 20 36.6666 18.1345 36.6666 15.8334C36.6666 13.5322 34.8011 11.6667 32.4999 11.6667C30.1987 11.6667 28.3333 13.5322 28.3333 15.8334C28.3333 18.1345 30.1987 20 32.4999 20Z" fill="#F24E1E"/>
<path d="M28.8999 24.7667C27.4499 23.0667 26.2332 21.6167 24.7666 19.9167C23.9999 19.0167 23.0166 18.1167 21.8499 17.7167C21.6666 17.65 21.4832 17.6 21.2999 17.5667C20.8832 17.5 20.4332 17.5 19.9999 17.5C19.5666 17.5 19.1166 17.5 18.6832 17.5833C18.4999 17.6167 18.3166 17.6667 18.1332 17.7333C16.9666 18.1333 15.9999 19.0333 15.2166 19.9333C13.7666 21.6333 12.5499 23.0833 11.0832 24.7833C8.89991 26.9667 6.21658 29.3833 6.71658 32.7667C7.19991 34.4667 8.41658 36.15 10.5999 36.6333C11.8166 36.8833 15.6999 35.9 19.8332 35.9H20.1332C24.2666 35.9 28.1499 36.8667 29.3666 36.6333C31.5499 36.15 32.7666 34.45 33.2499 32.7667C33.7666 29.3667 31.0832 26.95 28.8999 24.7667Z" fill="#F24E1E"/>
</svg>
